<svg xmlns="http://www.w3.org/2000/svg" width="64" height="64" xml:space="preserve">
  <g fill-rule="evenodd" clip-rule="evenodd">
    <path fill="#00AFD0"
      d="M56 28a2 2 0 0 1-2-2l-.002-.026.002-.036C54 13.82 44.15 4 32 4s-22 9.82-22 21.938l.002.036L10 26c0 .056.007.111.01.167.005.427.026.861.065 1.302a21.885 21.885 0 0 0 1.689 7.169C16.116 46.682 27.37 59.75 32 59.75c3.321 0 10.01-6.69 15.145-14.901l.012.007A2.046 2.046 0 0 1 48.819 44c1.135 0 2.056.919 2.056 2.056 0 .468-.162.895-.427 1.241C44.551 56.592 36.608 64 32 64c-6.766 0-20.337-15.474-24.647-29.765a25.826 25.826 0 0 1-1.251-6.242A22.172 22.172 0 0 1 6 26C6 11.642 17.642 0 32 0c14.359 0 26 11.642 26 26a2 2 0 0 1-2 2zm-2 4a2 2 0 1 1 .001 3.999A2 2 0 0 1 54 32z" />
    <path fill="#FC3435"
      d="M32 42c-8.836 0-16-7.164-16-16 0-1.433.209-2.814.562-4.139a3.94 3.94 0 0 1 .228-.574 4 4 0 0 1 5.392-1.714c.041.021.068.015.104.026A3.938 3.938 0 0 0 24 20a3.965 3.965 0 0 0 2.621-1.001l.014.017A1.978 1.978 0 0 1 28 18.468a2 2 0 0 1 2 2 1.99 1.99 0 0 1-1.011 1.729 7.957 7.957 0 0 1-8.618.893A12.015 12.015 0 0 0 20 26c0 6.628 5.372 12 12 12s12-5.372 12-12-5.372-12-12-12c-.582 0-1.151.056-1.709.141l-.008-.044c-.092.013-.187.029-.283.029a2 2 0 0 1 0-4c.029 0 .056.007.085.007A15.707 15.707 0 0 1 32 10c8.836 0 16 7.164 16 16s-7.164 16-16 16z" />
  </g>
</svg>
